<svg width="200" height="200" viewBox="0 0 200 200" fill="none" xmlns="http://www.w3.org/2000/svg">
<g clip-path="url(#clip0_1_405)">
<path d="M35.4167 1.61203e-05H164.583C169.236 -0.00448106 173.843 0.932018 178.142 2.75592C182.441 4.57981 186.347 7.25531 189.636 10.6293C192.926 14.0032 195.535 18.0094 197.313 22.4186C199.091 26.8277 200.004 31.5533 200 36.3248V163.675C200.004 168.447 199.091 173.172 197.313 177.581C195.535 181.991 192.926 185.997 189.636 189.371C186.347 192.745 182.441 195.42 178.142 197.244C173.843 199.068 169.236 200.004 164.583 200H35.4167C30.7645 200.004 26.157 199.068 21.8581 197.244C17.5592 195.42 13.6532 192.745 10.3635 189.371C7.07392 185.997 4.46532 181.991 2.68702 177.581C0.908717 173.172 -0.00436903 168.447 1.57173e-05 163.675V36.3248C-0.00436903 31.5533 0.908717 26.8277 2.68702 22.4186C4.46532 18.0094 7.07392 14.0032 10.3635 10.6293C13.6532 7.25531 17.5592 4.57981 21.8581 2.75592C26.157 0.932018 30.7645 -0.00448106 35.4167 1.61203e-05Z" fill="#697A26"/>
<path d="M85.7727 129.273V128.591C85.8485 121.356 86.6061 115.598 88.0455 111.318C89.4848 107.038 91.5303 103.572 94.1818 100.92C96.8333 98.2689 100.015 95.8258 103.727 93.5909C105.962 92.2273 107.97 90.6174 109.75 88.7614C111.53 86.8674 112.932 84.6894 113.955 82.2273C115.015 79.7652 115.545 77.0379 115.545 74.0455C115.545 70.3333 114.674 67.1136 112.932 64.3864C111.189 61.6591 108.86 59.5568 105.943 58.0795C103.027 56.6023 99.7879 55.8636 96.2273 55.8636C93.1212 55.8636 90.1288 56.5076 87.25 57.7955C84.3712 59.0833 81.9659 61.1098 80.0341 63.875C78.1023 66.6401 76.9848 70.2576 76.6818 74.7273H62.3636C62.6667 68.2879 64.3333 62.7765 67.3636 58.1932C70.4318 53.6098 74.4659 50.1061 79.4659 47.6818C84.5038 45.2576 90.0909 44.0455 96.2273 44.0455C102.894 44.0455 108.689 45.3712 113.614 48.0227C118.576 50.6742 122.402 54.3106 125.091 58.9318C127.818 63.553 129.182 68.8182 129.182 74.7273C129.182 78.8939 128.538 82.6629 127.25 86.0341C126 89.4053 124.182 92.4167 121.795 95.0682C119.447 97.7197 116.606 100.068 113.273 102.114C109.939 104.197 107.269 106.394 105.261 108.705C103.254 110.977 101.795 113.686 100.886 116.83C99.9773 119.973 99.4848 123.894 99.4091 128.591V129.273H85.7727ZM93.0455 162.909C90.2424 162.909 87.8371 161.905 85.8295 159.898C83.822 157.89 82.8182 155.485 82.8182 152.682C82.8182 149.879 83.822 147.473 85.8295 145.466C87.8371 143.458 90.2424 142.455 93.0455 142.455C95.8485 142.455 98.2538 143.458 100.261 145.466C102.269 147.473 103.273 149.879 103.273 152.682C103.273 154.538 102.799 156.242 101.852 157.795C100.943 159.348 99.7121 160.598 98.1591 161.545C96.6439 162.455 94.9394 162.909 93.0455 162.909Z" fill="black"/>
</g>
<defs>
<clipPath id="clip0_1_405">
<rect width="200" height="200" fill="white"/>
</clipPath>
</defs>
</svg>
